{"title":"Child.44.2015.HDRip.CAM-AUDIO.XviD.AC3-MenaceIISociety","uid":12119773,"size":1509579580,"categoryP":"video","categoryS":"movies","magnet":"?xt=urn:btih:9be5a7615123bdac49a96e3eb40d9332abb1ab27&amp;dn=Child.44.2015.HDRip.CAM-AUDIO.XviD.AC3-MenaceIISociety&amp;tr=udp%3A%2F%2Ftracker.openbittorrent.com%3A80&amp;tr=udp%3A%2F%2Fopen.demonii.com%3A1337&amp;tr=udp%3A%2F%2Ftracker.coppersurfer.tk%3A6969&amp;tr=udp%3A%2F%2Fexodus.desync.com%3A6969","seeders":0,"leechers":0,"uploader":"TvTeam","files":4,"time":1436804191,"description":"------------------------------------------------------------------------\n\n &lt;a href=&quot; https://www.torrenting.com&quot; rel=&quot;nofollow&quot; target=&quot;_NEW&quot;&gt; https://www.torrenting.com&lt;/a&gt;\n\nSign up is OPEN - for time being. Come and have fun\n\n.......................................................................................................................[img]http://s24.postimg.org/rndu342s5/image.jpg[/img]\n\nChild.44.2015.HDRip.CAM-AUDIO.XviD.AC3-MenaceIISociety &lt;a href=&quot;\nhttp://www.imdb.com/title/tt1014763/&quot; rel=&quot;nofollow&quot; target=&quot;_NEW&quot;&gt;\nhttp://www.imdb.com/title/tt1014763/&lt;/a&gt;\n\nSource: RUSSIAN.WEB-DL.1080p http://screenshotcomparison.com/comparison/134894/picture:0\nAudio - HiVE-CM8 [THANKS] \n\nGeneral\nComplete name                            : Child.44.2015.HDRip.CAM-AUDIO.XviD.AC3-MenaceIISociety.avi\nFormat                                   : AVI\nFormat/Info                              : Audio Video Interleave\nFile size                                : 1.39 GiB\nDuration                                 : 2h 11mn\nOverall bit rate                         : 1 511 Kbps\n\nVideo\nID                                       : 0\nFormat                                   : MPEG-4 Visual\nFormat profile                           : Advanced Simple@L5\nFormat settings, BVOP                    : 2\nFormat settings, QPel                    : No\nFormat settings, GMC                     : No warppoints\nFormat settings, Matrix                  : Default (H.263)\nMuxing mode                              : Packed bitstream\nCodec ID                                 : XVID\nCodec ID/Hint                            : XviD\nDuration                                 : 2h 11mn\nBit rate                                 : 1 247 Kbps\nWidth                                    : 720 pixels\nHeight                                   : 400 pixels\nDisplay aspect ratio                     : 16:9\nFrame rate                               : 25.000 fps\nColor space                              : YUV\nChroma subsampling                       : 4:2:0\nBit depth                                : 8 bits\nScan type                                : Progressive\nCompression mode                         : Lossy\nBits/(Pixel*Frame)                       : 0.173\nStream size                              : 1.15 GiB (83%)\nWriting library                          : XviD 64\n\nAudio\nID                                       : 1\nFormat                                   : AC-3\nFormat/Info                              : Audio Coding 3\nMode extension                           : CM (complete main)\nFormat settings, Endianness              : Big\nCodec ID                                 : 2000\nDuration                                 : 2h 11mn\nBit rate mode                            : Constant\nBit rate                                 : 256 Kbps\nChannel(s)                               : 2 channels\nChannel positions                        : Front: L R\nSampling rate                            : 48.0 KHz\nCompression mode                         : Lossy\nStream size                              : 241 MiB (17%)\nAlignment                                : Aligned on interleaves\nInterleave, duration                     : 64 ms (1.60 video frames)\nInterleave, preload duration             : 192 ms\n\n[img]http://s28.postimg.org/syqneegpp/vlcsnap_2015_07_13_11h46m41s135.jpg[/img]\n[img]http://s28.postimg.org/u64l6m6u5/vlcsnap_2015_07_13_11h46m55s498.jpg[/img]\n[img]http://s28.postimg.org/dapg7m13x/vlcsnap_2015_07_13_11h47m08s636.jpg[/img]\n[img]http://s28.postimg.org/4jifdchst/vlcsnap_2015_07_13_11h47m37s278.jpg[/img]\n[img]http://s28.postimg.org/k2fvagq3h/vlcsnap_2015_07_13_11h48m08s136.jpg[/img]\n[img]http://s28.postimg.org/667myktul/vlcsnap_2015_07_13_11h50m18s050.jpg[/img]\n[img]http://s28.postimg.org/n46nkf38d/vlcsnap_2015_07_13_11h50m45s594.jpg[/img]\n[img]http://s28.postimg.org/z7bz7zeal/vlcsnap_2015_07_13_11h51m06s118.jpg[/img] \n\n&lt;a class=&quot;__cf_email__&quot; href=&quot;/cdn-cgi/l/email-protection&quot; data-cfemail=&quot;21524e54534244526151534e554e4f4c40484d0f424e4c&quot;&gt;[email&amp;#160;protected]&lt;/a&gt;&lt;script data-cfhash='f9e31' type=&quot;text/javascript&quot;&gt;\n/* &lt;![CDATA[ */!function(){try{var t=&quot;currentScript&quot;in document?document.currentScript:function(){for(var t=document.getElementsByTagName(&quot;script&quot;),e=t.length;e--;)if(t[e].getAttribute(&quot;data-cfhash&quot;))return t[e]}();if(t&amp;&amp;t.previousSibling){var e,r,n,i,c=t.previousSibling,a=c.getAttribute(&quot;data-cfemail&quot;);if(a){for(e=&quot;&quot;,r=parseInt(a.substr(0,2),16),n=2;a.length-n;n+=2)i=parseInt(a.substr(n,2),16)^r,e+=String.fromCharCode(i);e=document.createTextNode(e),c.parentNode.replaceChild(e,c)}t.parentNode.removeChild(t);}}catch(u){}}()/* ]]&gt; */&lt;/script&gt;\n\n[img]http://s17.postimg.org/r1iiyw8yn/Untitled_1.png[/img]","torrent":{"xt":"urn:btih:9be5a7615123bdac49a96e3eb40d9332abb1ab27","amp;dn":"Child.44.2015.HDRip.CAM-AUDIO.XviD.AC3-MenaceIISociety","amp;tr":["udp%3A%2F%2Ftracker.openbittorrent.com%3A80","udp%3A%2F%2Fopen.demonii.com%3A1337","udp%3A%2F%2Ftracker.coppersurfer.tk%3A6969","udp%3A%2F%2Fexodus.desync.com%3A6969"],"infoHash":"9be5a7615123bdac49a96e3eb40d9332abb1ab27","infoHashBuffer":{"type":"Buffer","data":[155,229,167,97,81,35,189,172,73,169,110,62,180,13,147,50,171,177,171,39]},"announce":[],"urlList":[]}}